<?xml version="1.0" encoding="UTF-8"?>
<svg id="Calque_2" data-name="Calque 2" xmlns="http://www.w3.org/2000/svg" xmlns:xlink="http://www.w3.org/1999/xlink" viewBox="0 0 379.32 555.75">
  <defs>
    <style>
      .cls-1 {
        fill: none;
      }

      .cls-2 {
        clip-path: url(#clippath-1);
      }

      .cls-3 {
        fill: #7c1808;
      }

      .cls-4 {
        clip-path: url(#clippath);
      }
    </style>
    <clipPath id="clippath">
      <rect class="cls-1" x="18.98" width="176.42" height="164.08"/>
    </clipPath>
    <clipPath id="clippath-1">
      <rect class="cls-1" x="195.4" width="176.42" height="164.08"/>
    </clipPath>
  </defs>
  <g id="Pg_7" data-name="Pg 7">
    <g>
      <g>
        <path class="cls-3" d="M0,434.91v-254.48h125.76v85.88l-50.65-25.35v-22.18h-25.74v177.79l38.5,18.07v-100.87l-19.09-10.73v-42.47l56.98,28.52v209.41L0,434.91Z"/>
        <path class="cls-3" d="M180.56,232.53v79.15l53.03-28.03v54.85l-53.03,28.03v112.05l14.84,15.54,19.09-15.54v-76.27l37.89-25.81v127.5l-56.98,51.74-56.98-51.74V180.48h113.96l-17.96,52.05h-53.86Z"/>
        <path class="cls-3" d="M265.04,498.5v-183.53l42.14,25.35v85.11l34.25-16.07-12.76-81.22-63.63-31.68v-115.97h114.28v111.18l-52.35-26.63,2.58-54.73-31.18-6.76,13.06,75.48,67.88,32v123.89l-114.28,63.58Z"/>
      </g>
      <g>
        <g id="_Répétition_miroir_" data-name="&amp;lt;Répétition miroir&amp;gt;">
          <g class="cls-4">
            <path class="cls-3" d="M90.02,164.08L18.98,74.26l78.79,19.16,6.09,18.11c4.73,14.06,20.74,21.36,34.4,15.25,8.46-3.79,14.17-11.83,9.92-25.67-2.53-8.23-14.04-26.85-14.04-26.85l63.4-52.1v141.93h-107.51Z"/>
          </g>
        </g>
        <g id="_Répétition_miroir_-2" data-name="&amp;lt;Répétition miroir&amp;gt;">
          <g class="cls-2">
            <path class="cls-3" d="M300.78,164.08l71.04-89.83-78.79,19.16-6.09,18.11c-4.73,14.06-20.74,21.36-34.4,15.25-8.46-3.79-14.17-11.83-9.92-25.67,2.53-8.23,14.04-26.85,14.04-26.85l-63.4-52.1v141.93h107.51Z"/>
          </g>
        </g>
      </g>
    </g>
  </g>
</svg>